PathFileType	4	(X/Y/Z)	D:\TRACE\v60_Jaco2_6-2-23\JustBodyDRS_Motion2_6-v60.trc
DataRate	CameraRate	NumFrames	NumMarkers	Units	OrigDataRate	OrigDataStartFrame	OrigNumFrames
100.00	100.00	      24	9	mm	100.00	1686	      6741
Frame#	Time	front left toe			Front right toe			aft left toe			aft right toe			Arm			FL body			FR body			AL Body			AR Body			
		X1	Y1	Z1	X2	Y2	Z2	X3	Y3	Z3	X4	Y4	Z4	X5	Y5	Z5	X6	Y6	Z6	X7	Y7	Z7	X8	Y8	Z8	X9	Y9	Z9	

1686	16.850	-211.47812	33.36717	-140.44899	132.85686	28.15428	-132.16878	-230.01598	-22.08455	493.09335	156.60995	-17.88759	492.06155	-124.72769	1231.59741	-221.06264	-101.65963	601.74976	-272.49081	58.34987	600.00671	-270.99554	-107.35992	516.41736	670.78613	49.87537	509.26758	671.67834	
1687	16.860	-211.80397	32.66283	-137.85162	130.12871	31.13461	-133.07970	-231.08130	-17.96120	490.83817	156.35172	-18.11656	490.74438	-124.71516	1231.57788	-223.76611	-101.33228	603.47772	-273.29352	59.22932	601.74261	-272.00455	-107.16463	516.14441	669.47064	50.10262	509.21927	670.80542	
1688	16.870	-212.26221	32.97395	-140.58702	126.52647	35.62993	-131.42073	-229.77206	-14.63116	492.70535	155.81876	-17.67796	491.09344	-124.25331	1232.00342	-224.49895	-101.13327	604.57495	-274.47205	59.22091	603.09698	-273.29297	-107.37028	515.67297	668.16284	50.23585	508.89697	669.31470	
1689	16.880	-213.70197	32.48551	-140.15422	125.24693	45.03709	-131.03641	-226.81888	-7.81937	492.74323	154.22519	-17.17778	490.29175	-122.81346	1233.36633	-224.12120	-101.05450	604.85016	-275.95673	59.16549	603.51758	-274.93738	-106.76141	516.16736	666.75616	50.50002	509.30017	667.50317	
1690	16.890	-214.77383	31.39943	-140.52431	125.41071	55.57515	-132.49939	-225.56271	4.18000	489.76074	153.60968	-16.28932	490.09573	-121.35629	1235.17053	-223.75516	-101.27376	604.78168	-277.63400	58.72050	603.17114	-276.61401	-106.13241	516.85834	665.21350	50.47353	509.68054	666.08508	
1691	16.900	-216.35034	31.42565	-140.84378	127.59128	67.86454	-135.38072	-223.27161	15.49706	488.23111	152.05325	-16.04244	489.94589	-121.17420	1236.52161	-223.92003	-101.43927	604.78418	-278.90274	58.39974	603.09259	-278.06131	-106.32046	516.99854	663.79718	50.75698	510.01883	664.82916	
1692	16.910	-217.46582	31.11681	-140.91011	131.32222	81.19714	-139.18828	-223.23274	29.24405	484.39291	151.56424	-15.78890	489.61581	-121.55001	1236.64990	-224.84436	-102.04947	604.89130	-280.36646	58.20530	603.20441	-279.45090	-105.80164	516.76843	662.47961	51.64790	509.70190	663.41956	
1693	16.920	-218.37698	30.79851	-141.31416	134.94783	94.75317	-143.51715	-221.91458	40.25650	481.29788	150.69594	-14.68224	489.52866	-121.97484	1235.85950	-226.65778	-102.52447	605.17432	-281.47141	57.65612	603.38062	-280.72263	-105.28323	516.43347	660.98523	51.97310	509.28085	661.78894	
1694	16.930	-219.71400	30.50472	-141.45207	138.57582	107.81322	-147.31522	-222.42775	54.51606	476.79340	149.51840	-14.23305	489.09909	-122.54932	1235.04102	-228.85417	-102.95934	605.39301	-282.50723	57.20390	603.19116	-282.12521	-104.85011	515.61530	659.75214	52.28788	508.54312	660.46936	
1695	16.940	-220.76834	29.84941	-141.87363	141.87267	120.72606	-151.10094	-221.00847	66.55313	473.08673	148.69119	-13.35800	488.92068	-122.32196	1233.95825	-230.76587	-103.09841	605.29755	-283.88452	57.17781	602.87286	-283.62231	-104.51502	516.09106	658.48193	53.05864	508.27972	659.06940	
1696	16.950	-222.13161	29.60513	-142.32275	144.40178	132.83263	-154.22668	-218.71359	78.08904	469.86520	147.22789	-13.11557	488.58841	-122.48072	1233.52759	-232.63222	-103.16556	604.82227	-285.14008	56.41770	602.63660	-284.93945	-104.22850	515.76758	657.15033	53.57858	508.38034	657.71533	
1697	16.960	-223.18109	29.46984	-142.45306	146.94287	143.77908	-157.01247	-216.75017	89.27366	466.54324	146.29770	-12.39364	488.23383	-122.38173	1233.96179	-233.59552	-104.00448	604.51245	-286.34363	55.79007	602.19391	-286.61386	-103.55412	516.18195	655.90771	53.64494	508.59177	656.49023	
1698	16.970	-224.15509	29.12517	-142.76666	150.93639	152.91162	-159.79266	-214.45882	99.17525	463.47745	145.43282	-11.80441	488.18527	-122.24868	1234.41846	-234.52054	-104.30380	603.80292	-287.67722	56.23282	601.79535	-287.74905	-103.24364	515.99969	654.66345	53.69534	508.93738	654.85358	
1699	16.980	-225.30571	29.11822	-142.97586	155.52518	158.75658	-161.84256	-210.52103	104.65565	461.60516	144.16040	-11.21019	487.88019	-122.71178	1234.31677	-235.76813	-104.44902	603.08405	-289.03900	55.91163	600.73779	-289.05972	-103.19915	516.89636	653.66553	54.30850	509.62543	654.47095	
1700	16.990	-226.20644	28.58222	-143.07722	159.87120	162.09702	-163.89391	-208.45763	108.61663	459.55634	143.78998	-10.50156	487.85486	-122.55334	1233.57471	-237.33600	-104.36343	602.62592	-290.10565	55.54350	600.44733	-290.21829	-102.53381	517.44012	652.56842	54.44520	509.82220	652.41956	
1701	17.000	-227.20140	28.27427	-143.42645	163.29053	162.59036	-165.27939	-206.66127	109.37148	458.21173	142.29181	-9.88167	487.45572	-123.35368	1232.70020	-239.82208	-105.00786	602.32690	-291.05283	55.51851	600.10370	-291.61078	-102.11370	518.04877	651.39227	54.91908	510.51254	651.24036	
1702	17.010	-228.21143	28.33362	-143.60362	166.63145	160.15276	-166.83028	-204.88611	107.43076	456.77032	141.38144	-9.25995	487.28381	-122.98476	1231.72534	-242.00095	-105.29743	601.89655	-292.26416	54.75828	599.79211	-292.82632	-101.48763	518.41418	650.65466	55.26197	511.22070	650.23120	
1703	17.020	-229.44533	28.38820	-143.95988	169.87633	156.33737	-168.37950	-203.81342	104.18040	455.13477	140.49748	-8.45996	487.06784	-123.30434	1231.53003	-244.49350	-105.34645	601.46088	-293.39203	54.52588	599.54077	-293.90363	-101.19170	519.30103	649.42383	56.09245	512.06702	648.97803	
1704	17.030	-230.02951	27.92826	-144.08049	172.99290	151.07928	-170.09099	-200.35985	99.09284	454.08395	138.90675	-7.90635	486.87997	-124.39974	1231.33704	-246.92622	-105.53359	601.09528	-294.47916	54.51131	599.03162	-295.72025	-100.10589	520.16760	648.14020	56.60867	512.86584	648.01483	
1705	17.040	-230.90617	27.63675	-144.38687	177.04619	144.78508	-172.30260	-198.86055	94.33700	452.15720	138.22813	-7.17559	486.63190	-123.52809	1231.71069	-250.91599	-106.14930	600.47772	-295.94427	54.45623	598.71106	-296.96307	-99.92672	520.66254	646.94830	56.92427	513.71118	646.50964	
1706	17.050	-232.16713	27.64447	-144.54295	179.31407	137.15735	-175.18689	-194.49240	87.00177	450.68710	137.05911	-6.36540	486.35648	-125.25217	1230.79480	-251.11551	-106.48752	599.93677	-297.36584	53.74768	598.34094	-298.70679	-99.24435	521.58984	645.55841	57.98223	514.57086	644.91681	
1707	17.060	-233.20891	27.29673	-144.79959	182.73906	128.86047	-178.25734	-191.25555	79.86274	448.07825	136.16864	-5.63395	486.13303	-126.53197	1230.61902	-252.80986	-106.92967	599.32758	-298.86166	53.33083	597.90765	-300.39838	-98.09859	522.36493	644.42877	58.50162	515.75092	643.10571	
1708	17.070	-234.05643	27.10372	-145.17392	185.41753	119.77429	-181.86307	-188.53340	71.56931	445.46518	135.37270	-4.81246	485.81723	-127.33562	1230.54248	-254.93501	-107.60802	598.91760	-300.58591	52.28254	597.64313	-301.88986	-97.69393	523.38501	642.58929	60.59760	516.77142	641.44446	
1709	17.080	-234.81606	26.88991	-145.29675	187.64821	110.94093	-186.59741	-184.56029	61.84874	442.37375	134.10860	-4.13661	485.50171	-128.17972	1230.27185	-257.23203	-108.67886	598.74188	-302.19080	52.05223	597.63562	-304.13846	-96.18799	523.93689	641.34534	60.68203	517.56610	639.58331	
